# xmcd
#
# Track frame offsets:
#	182
#	40535
#	75215
#	103460
#	132955
#
# Disc length: 2056 seconds
#
# Revision: 0
# Processed by: cddbd v1.4PL0 Copyright (c) Steve Scherf et al.
# Submitted via: dBpowerAMP V4.0
#
DISCID=33080605
DTITLE=Coupé cloué  - Coupé cloué 
DYEAR=1900
DGENRE=Blues
TTITLE0=Madame Marcel
TTITLE1=Leogane
TTITLE2=Planté
TTITLE3=Somos
TTITLE4=Papa Locos
EXTD=
EXTT0=
EXTT1=
EXTT2=
EXTT3=
EXTT4=
PLAYORDER=
